<?xml version="1.0" encoding="UTF-8" standalone="no"?>
<!-- Created with Inkscape (http://www.inkscape.org/) -->

<svg
   xmlns:dc="http://purl.org/dc/elements/1.1/"
   xmlns:cc="http://creativecommons.org/ns#"
   xmlns:rdf="http://www.w3.org/1999/02/22-rdf-syntax-ns#"
   xmlns:svg="http://www.w3.org/2000/svg"
   xmlns="http://www.w3.org/2000/svg"
   xmlns:sodipodi="http://sodipodi.sourceforge.net/DTD/sodipodi-0.dtd"
   xmlns:inkscape="http://www.inkscape.org/namespaces/inkscape"
   width="48"
   height="48"
   viewBox="0 0 12.7 12.7"
   version="1.1"
   id="svg8"
   inkscape:version="0.92.2 (5c3e80d, 2017-08-06)"
   sodipodi:docname="icons.svg">
  <defs
     id="defs2" />
  <sodipodi:namedview
     id="base"
     pagecolor="#ffffff"
     bordercolor="#666666"
     borderopacity="1.0"
     inkscape:pageopacity="0.0"
     inkscape:pageshadow="2"
     inkscape:zoom="9.8541667"
     inkscape:cx="24"
     inkscape:cy="24"
     inkscape:document-units="px"
     inkscape:current-layer="layer1"
     showgrid="true"
     units="px"
     inkscape:measure-start="38.3398,43.998"
     inkscape:measure-end="27.052,35.9961"
     inkscape:window-width="958"
     inkscape:window-height="1008"
     inkscape:window-x="2233"
     inkscape:window-y="0"
     inkscape:window-maximized="0">
    <inkscape:grid
       type="xygrid"
       id="grid815"
       empspacing="8"
       enabled="false" />
  </sodipodi:namedview>
  <metadata
     id="metadata5">
    <rdf:RDF>
      <cc:Work
         rdf:about="">
        <dc:format>image/svg+xml</dc:format>
        <dc:type
           rdf:resource="http://purl.org/dc/dcmitype/StillImage" />
        <dc:title></dc:title>
      </cc:Work>
    </rdf:RDF>
  </metadata>
  <g
     inkscape:label="Settings"
     inkscape:groupmode="layer"
     id="layer1"
     transform="translate(0,-284.3)"
     style="display:inline">
    <path
       style="opacity:1;fill:#c51162;fill-opacity:0.98305084;stroke:none;stroke-width:0.99999994;stroke-linecap:round;stroke-linejoin:round;stroke-miterlimit:4;stroke-dasharray:none;stroke-dashoffset:0;stroke-opacity:1"
       d="M 19.039062,2.5898438 A 22,22 0 0 0 12.369141,5.3574219 4.9999996,4.9999996 0 0 1 11.978516,11.978516 4.9999996,4.9999996 0 0 1 5.3457031,12.363281 22,22 0 0 0 2.59375,19.041016 4.9999996,4.9999996 0 0 1 7,24 a 4.9999996,4.9999996 0 0 1 -4.4101562,4.960938 22,22 0 0 0 2.765625,6.667968 4.9999996,4.9999996 0 0 1 3.1601562,-1.070312 4.9999996,4.9999996 0 0 1 3.462891,1.46289 4.9999996,4.9999996 0 0 1 0.384765,6.634766 22,22 0 0 0 6.677735,2.75 A 4.9999996,4.9999996 0 0 1 24,41.001953 a 4.9999996,4.9999996 0 0 1 4.960938,4.408203 22,22 0 0 0 6.669921,-2.767578 4.9999996,4.9999996 0 0 1 0.390625,-6.621094 4.9999996,4.9999996 0 0 1 3.607422,-1.46289 4.9999996,4.9999996 0 0 1 3.025391,1.078125 A 22,22 0 0 0 45.40625,28.958984 4.9999996,4.9999996 0 0 1 41,24 4.9999996,4.9999996 0 0 1 45.410156,19.039062 22,22 0 0 0 42.642578,12.369141 4.9999996,4.9999996 0 0 1 36.021484,11.978516 4.9999996,4.9999996 0 0 1 35.636719,5.3457031 22,22 0 0 0 28.958984,2.59375 4.9999996,4.9999996 0 0 1 24,7 4.9999996,4.9999996 0 0 1 19.039062,2.5898438 Z M 24,21 a 3,3 0 0 1 3,3 3,3 0 0 1 -3,3 3,3 0 0 1 -3,-3 3,3 0 0 1 3,-3 z"
       transform="matrix(0.26458333,0,0,0.26458333,0,284.3)"
       id="path4506"
       inkscape:connector-curvature="0" />
  </g>
  <g
     inkscape:groupmode="layer"
     id="layer2"
     inkscape:label="Home"
     style="display:none">
    <path
       style="color:#000000;font-style:normal;font-variant:normal;font-weight:normal;font-stretch:normal;font-size:medium;line-height:normal;font-family:sans-serif;font-variant-ligatures:normal;font-variant-position:normal;font-variant-caps:normal;font-variant-numeric:normal;font-variant-alternates:normal;font-feature-settings:normal;text-indent:0;text-align:start;text-decoration:none;text-decoration-line:none;text-decoration-style:solid;text-decoration-color:#000000;letter-spacing:normal;word-spacing:normal;text-transform:none;writing-mode:lr-tb;direction:ltr;text-orientation:mixed;dominant-baseline:auto;baseline-shift:baseline;text-anchor:start;white-space:normal;shape-padding:0;clip-rule:nonzero;display:inline;overflow:visible;visibility:visible;opacity:1;isolation:auto;mix-blend-mode:normal;color-interpolation:sRGB;color-interpolation-filters:linearRGB;solid-color:#000000;solid-opacity:1;vector-effect:none;fill:#c51062;fill-opacity:0.98431373;fill-rule:nonzero;stroke:none;stroke-width:7.99999952;stroke-linecap:square;stroke-linejoin:miter;stroke-miterlimit:4;stroke-dasharray:none;stroke-dashoffset:0;stroke-opacity:1;color-rendering:auto;image-rendering:auto;shape-rendering:auto;text-rendering:auto;enable-background:accumulate"
       d="M 24,1.2578125 21.851562,2.625 4.8515625,13.443359 1.4785156,15.591797 5.7734375,22.339844 9.1464844,20.193359 24,10.742188 l 14.853516,9.451171 3.373046,2.146485 4.294922,-6.748047 -3.373046,-2.148438 -17,-10.818359 z M 24,12.742188 9.1464844,22.193359 8,22.923828 V 46 H 20 V 35 h 8 V 46 H 40 V 22.923828 l -1.146484,-0.730469 z"
       transform="scale(0.26458333)"
       id="path4539"
       inkscape:connector-curvature="0" />
  </g>
  <g
     inkscape:groupmode="layer"
     id="layer3"
     inkscape:label="Modules"
     style="display:none">
    <path
       style="opacity:1;fill:#650832;fill-opacity:0.98431373;stroke:none;stroke-width:7.99999952;stroke-linecap:square;stroke-linejoin:round;stroke-miterlimit:4;stroke-dasharray:none;stroke-dashoffset:0;stroke-opacity:1"
       d="m 19,2 c -3.865993,0 -7,2.2385785 -7,5 0.174833,2.9182711 5,5 2,5 H 3 c -0.554,0 -1,0.446 -1,1 v 11 c 0,3 2.0817285,-1.825167 5,-2 2.7614211,0 5,3.134007 5,7 0,3.865993 -2.2385789,7 -5,7 C 4.908708,35.94165 2,31 2,34 v 11 c 0,0.554 0.446,1 1,1 h 11 c 3,0 -1.825167,-2.081729 -2,-5 0,-2.761421 3.134007,-5 7,-5 3.865993,0 7,2.238579 7,5 -0.05834,2.091292 -5,5 -2,5 h 11 c 0.554,0 1,-0.446 1,-1 V 34 c 0,-3 2.908708,1.941655 5,2 2.761421,0 5,-3.134007 5,-7 0,-3.865993 -2.238579,-7 -5,-7 -2.918271,0.174833 -5,5 -5,2 V 13 c 0,-0.554 -0.446,-1 -1,-1 H 24 C 21,12 25.941655,9.0912916 26,7 26,4.2385785 22.865993,2 19,2 Z"
       transform="scale(0.26458333)"
       id="rect4808"
       inkscape:connector-curvature="0" />
  </g>
  <g
     inkscape:groupmode="layer"
     id="layer4"
     inkscape:label="Close"
     style="display:none">
    <path
       style="color:#000000;font-style:normal;font-variant:normal;font-weight:normal;font-stretch:normal;font-size:medium;line-height:normal;font-family:sans-serif;font-variant-ligatures:normal;font-variant-position:normal;font-variant-caps:normal;font-variant-numeric:normal;font-variant-alternates:normal;font-feature-settings:normal;text-indent:0;text-align:start;text-decoration:none;text-decoration-line:none;text-decoration-style:solid;text-decoration-color:#000000;letter-spacing:normal;word-spacing:normal;text-transform:none;writing-mode:lr-tb;direction:ltr;text-orientation:mixed;dominant-baseline:auto;baseline-shift:baseline;text-anchor:start;white-space:normal;shape-padding:0;clip-rule:nonzero;display:inline;overflow:visible;visibility:visible;opacity:1;isolation:auto;mix-blend-mode:normal;color-interpolation:sRGB;color-interpolation-filters:linearRGB;solid-color:#000000;solid-opacity:1;vector-effect:none;fill:#000000;fill-opacity:1;fill-rule:nonzero;stroke:none;stroke-width:3.99999976;stroke-linecap:butt;stroke-linejoin:miter;stroke-miterlimit:4;stroke-dasharray:none;stroke-dashoffset:0;stroke-opacity:1;color-rendering:auto;image-rendering:auto;shape-rendering:auto;text-rendering:auto;enable-background:accumulate"
       d="M 9.4121094,6.5839844 6.5839844,9.4121094 21.171875,23.998047 6.5839844,38.585938 9.4121094,41.412109 23.998047,26.826172 38.585938,41.412109 41.412109,38.585938 26.826172,23.998047 41.412109,9.4121094 38.585938,6.5839844 23.998047,21.171875 Z"
       transform="scale(0.26458333)"
       id="path4925"
       inkscape:connector-curvature="0" />
  </g>
  <g
     inkscape:groupmode="layer"
     id="layer5"
     inkscape:label="Iconize"
     style="display:none">
    <rect
       style="opacity:1;fill:#000000;fill-opacity:0.98431373;stroke:none;stroke-width:1.05833328;stroke-linecap:square;stroke-linejoin:round;stroke-miterlimit:4;stroke-dasharray:none;stroke-dashoffset:0;stroke-opacity:1"
       id="rect4935"
       width="8.9958334"
       height="1.0583333"
       x="1.8520833"
       y="10.054167" />
  </g>
  <g
     inkscape:groupmode="layer"
     id="layer6"
     inkscape:label="Maximize"
     style="display:none">
    <path
       style="color:#000000;font-style:normal;font-variant:normal;font-weight:normal;font-stretch:normal;font-size:medium;line-height:normal;font-family:sans-serif;font-variant-ligatures:normal;font-variant-position:normal;font-variant-caps:normal;font-variant-numeric:normal;font-variant-alternates:normal;font-feature-settings:normal;text-indent:0;text-align:start;text-decoration:none;text-decoration-line:none;text-decoration-style:solid;text-decoration-color:#000000;letter-spacing:normal;word-spacing:normal;text-transform:none;writing-mode:lr-tb;direction:ltr;text-orientation:mixed;dominant-baseline:auto;baseline-shift:baseline;text-anchor:start;white-space:normal;shape-padding:0;clip-rule:nonzero;display:inline;overflow:visible;visibility:visible;opacity:1;isolation:auto;mix-blend-mode:normal;color-interpolation:sRGB;color-interpolation-filters:linearRGB;solid-color:#000000;solid-opacity:1;vector-effect:none;fill:#000000;fill-opacity:1;fill-rule:nonzero;stroke:none;stroke-width:1.05833328;stroke-linecap:square;stroke-linejoin:miter;stroke-miterlimit:4;stroke-dasharray:none;stroke-dashoffset:0;stroke-opacity:1;color-rendering:auto;image-rendering:auto;shape-rendering:auto;text-rendering:auto;enable-background:accumulate"
       d="M 1.5878906,1.5878906 V 2.1171875 11.113281 H 11.113281 V 1.5878906 Z M 2.6464844,2.6464844 H 10.054688 V 10.054688 H 2.6464844 Z"
       id="rect4938"
       inkscape:connector-curvature="0" />
  </g>
  <g
     inkscape:groupmode="layer"
     id="layer7"
     inkscape:label="Minimize"
     style="display:none">
    <path
       style="color:#000000;font-style:normal;font-variant:normal;font-weight:normal;font-stretch:normal;font-size:medium;line-height:normal;font-family:sans-serif;font-variant-ligatures:normal;font-variant-position:normal;font-variant-caps:normal;font-variant-numeric:normal;font-variant-alternates:normal;font-feature-settings:normal;text-indent:0;text-align:start;text-decoration:none;text-decoration-line:none;text-decoration-style:solid;text-decoration-color:#000000;letter-spacing:normal;word-spacing:normal;text-transform:none;writing-mode:lr-tb;direction:ltr;text-orientation:mixed;dominant-baseline:auto;baseline-shift:baseline;text-anchor:start;white-space:normal;shape-padding:0;clip-rule:nonzero;display:inline;overflow:visible;visibility:visible;opacity:1;isolation:auto;mix-blend-mode:normal;color-interpolation:sRGB;color-interpolation-filters:linearRGB;solid-color:#000000;solid-opacity:1;vector-effect:none;fill:#000000;fill-opacity:1;fill-rule:nonzero;stroke:none;stroke-width:3.99999976;stroke-linecap:square;stroke-linejoin:miter;stroke-miterlimit:4;stroke-dasharray:none;stroke-dashoffset:0;stroke-opacity:1;color-rendering:auto;image-rendering:auto;shape-rendering:auto;text-rendering:auto;enable-background:accumulate"
       d="m 14.003906,6.0019531 v 2 V 13 h 3.992188 V 10.001953 H 38.001953 V 30 H 35 v 4.001953 h 7.003906 V 6.0019531 Z M 6.0019531,14.003906 v 1.992188 26.007812 H 34.001953 v -28 z m 3.9999999,3.992188 H 30 V 38.001953 H 10.001953 Z"
       transform="scale(0.26458333)"
       id="rect4945"
       inkscape:connector-curvature="0" />
  </g>
  <g
     inkscape:groupmode="layer"
     id="layer8"
     inkscape:label="Update"
     style="display:none">
    <path
       style="opacity:1;fill:#000000;fill-opacity:1;stroke:none;stroke-width:7.99999952;stroke-linecap:square;stroke-linejoin:miter;stroke-miterlimit:4;stroke-dasharray:none;stroke-dashoffset:0;stroke-opacity:1"
       d="M 24,1.2578125 1.4785156,15.591797 5.7734375,22.339844 20,13.287109 V 37 h 8 V 13.287109 l 14.226562,9.052735 4.294922,-6.748047 z M 2,38 v 8 h 44 v -8 z"
       transform="scale(0.26458333)"
       id="rect4961"
       inkscape:connector-curvature="0" />
  </g>
  <g
     inkscape:groupmode="layer"
     id="layer9"
     inkscape:label="Zen"
     style="display:none">
    <path
       style="color:#000000;font-style:normal;font-variant:normal;font-weight:normal;font-stretch:normal;font-size:medium;line-height:normal;font-family:sans-serif;font-variant-ligatures:normal;font-variant-position:normal;font-variant-caps:normal;font-variant-numeric:normal;font-variant-alternates:normal;font-feature-settings:normal;text-indent:0;text-align:start;text-decoration:none;text-decoration-line:none;text-decoration-style:solid;text-decoration-color:#000000;letter-spacing:normal;word-spacing:normal;text-transform:none;writing-mode:lr-tb;direction:ltr;text-orientation:mixed;dominant-baseline:auto;baseline-shift:baseline;text-anchor:start;white-space:normal;shape-padding:0;clip-rule:nonzero;display:inline;overflow:visible;visibility:visible;opacity:1;isolation:auto;mix-blend-mode:normal;color-interpolation:sRGB;color-interpolation-filters:linearRGB;solid-color:#000000;solid-opacity:1;vector-effect:none;fill:#000000;fill-opacity:1;fill-rule:nonzero;stroke:none;stroke-width:7.99999952;stroke-linecap:square;stroke-linejoin:miter;stroke-miterlimit:4;stroke-dasharray:none;stroke-dashoffset:0;stroke-opacity:1;color-rendering:auto;image-rendering:auto;shape-rendering:auto;text-rendering:auto;enable-background:accumulate"
       d="m 4.0019531,4.0019531 8.0019529,8.0019529 h 15.048828 l 11.28711,-8.0019529 z m 34.3378909,0 L 6.3417969,36 20.080078,33.578125 41.654297,12.003906 Z M 6.3417969,36 6.3398469,36.002 9.6543,44.003953 h 34.349606 v -0.01758 L 44,44 36.001953,36.001953 H 17.65625 l 0.002,-0.002 z"
       transform="scale(0.26458333)"
       id="path5048"
       inkscape:connector-curvature="0" />
    <path
       inkscape:connector-curvature="0"
       style="color:#000000;font-style:normal;font-variant:normal;font-weight:normal;font-stretch:normal;font-size:medium;line-height:normal;font-family:sans-serif;font-variant-ligatures:normal;font-variant-position:normal;font-variant-caps:normal;font-variant-numeric:normal;font-variant-alternates:normal;font-feature-settings:normal;text-indent:0;text-align:start;text-decoration:none;text-decoration-line:none;text-decoration-style:solid;text-decoration-color:#000000;letter-spacing:normal;word-spacing:normal;text-transform:none;writing-mode:lr-tb;direction:ltr;text-orientation:mixed;dominant-baseline:auto;baseline-shift:baseline;text-anchor:start;white-space:normal;shape-padding:0;clip-rule:nonzero;display:inline;overflow:visible;visibility:visible;opacity:1;isolation:auto;mix-blend-mode:normal;color-interpolation:sRGB;color-interpolation-filters:linearRGB;solid-color:#000000;solid-opacity:1;vector-effect:none;fill:#000000;fill-opacity:1;fill-rule:nonzero;stroke:none;stroke-width:2.11666656;stroke-linecap:square;stroke-linejoin:miter;stroke-miterlimit:4;stroke-dasharray:none;stroke-dashoffset:0;stroke-opacity:1;color-rendering:auto;image-rendering:auto;shape-rendering:auto;text-rendering:auto;enable-background:accumulate"
       d="M 1.058075,1.0580685 3.1752584,3.1752519 H 7.1569275 L 10.143309,1.0580685 Z m 9.085234,0 L 1.6771587,9.5242184 5.3120789,8.8834307 11.020258,3.1752519 Z m -8.4661503,8.4661499 -5.16e-4,5.292e-4 0.8769491,2.1171834 h 9.0883332 v -0.0047 l -0.001,0.0036 L 9.5247417,9.5247352 H 4.6707744 l 5.292e-4,-5.292e-4 z"
       id="path5048-0" />
  </g>
</svg>
