<?xml version="1.0" encoding="UTF-8" standalone="no"?>
<!-- Created with Inkscape (http://www.inkscape.org/) -->

<svg
   xmlns:dc="http://purl.org/dc/elements/1.1/"
   xmlns:cc="http://creativecommons.org/ns#"
   xmlns:rdf="http://www.w3.org/1999/02/22-rdf-syntax-ns#"
   xmlns:svg="http://www.w3.org/2000/svg"
   xmlns="http://www.w3.org/2000/svg"
   xmlns:sodipodi="http://sodipodi.sourceforge.net/DTD/sodipodi-0.dtd"
   xmlns:inkscape="http://www.inkscape.org/namespaces/inkscape"
   width="48"
   height="48"
   viewBox="0 0 12.7 12.7"
   version="1.1"
   id="svg5115"
   inkscape:version="0.92.2 (5c3e80d, 2017-08-06)"
   sodipodi:docname="modules.svg">
  <defs
     id="defs5109" />
  <sodipodi:namedview
     id="base"
     pagecolor="#ffffff"
     bordercolor="#666666"
     borderopacity="1.0"
     inkscape:pageopacity="0.0"
     inkscape:pageshadow="2"
     inkscape:zoom="16"
     inkscape:cx="24"
     inkscape:cy="24"
     inkscape:document-units="mm"
     inkscape:current-layer="layer1"
     showgrid="true"
     units="px"
     inkscape:window-width="958"
     inkscape:window-height="1008"
     inkscape:window-x="1273"
     inkscape:window-y="0"
     inkscape:window-maximized="0">
    <inkscape:grid
       type="xygrid"
       id="grid5660"
       empspacing="8" />
  </sodipodi:namedview>
  <metadata
     id="metadata5112">
    <rdf:RDF>
      <cc:Work
         rdf:about="">
        <dc:format>image/svg+xml</dc:format>
        <dc:type
           rdf:resource="http://purl.org/dc/dcmitype/StillImage" />
        <dc:title></dc:title>
      </cc:Work>
    </rdf:RDF>
  </metadata>
  <g
     inkscape:label="Calque 1"
     inkscape:groupmode="layer"
     id="layer1"
     transform="translate(0,-284.29998)">
    <path
       style="display:inline;opacity:1;fill:#650832;fill-opacity:0.98431373;stroke:none;stroke-width:2.11666656;stroke-linecap:square;stroke-linejoin:round;stroke-miterlimit:4;stroke-dasharray:none;stroke-dashoffset:0;stroke-opacity:1"
       d="m 5.0270834,284.82915 c -1.0228773,0 -1.8520834,0.59229 -1.8520834,1.32292 0.046258,0.77212 1.3229167,1.32291 0.5291667,1.32291 H 0.79375 c -0.14657916,0 -0.26458333,0.11801 -0.26458333,0.26459 v 2.91041 c 0,0.79375 0.55079063,-0.48291 1.32291673,-0.52916 0.730626,0 1.3229166,0.8292 1.3229166,1.85208 0,1.02288 -0.5922906,1.85208 -1.3229166,1.85208 -0.5533211,-0.0154 -1.32291673,-1.32291 -1.32291673,-0.52916 v 2.91041 c 0,0.14658 0.11800417,0.26459 0.26458333,0.26459 h 2.9104167 c 0.79375,0 -0.4829088,-0.55079 -0.5291667,-1.32292 0,-0.73063 0.8292061,-1.32292 1.8520834,-1.32292 1.0228773,0 1.8520833,0.59229 1.8520833,1.32292 C 6.8637307,295.70122 5.55625,296.47082 6.35,296.47082 h 2.9104167 c 0.1465792,0 0.2645833,-0.11801 0.2645833,-0.26459 v -2.91041 c 0,-0.79375 0.769596,0.51373 1.322917,0.52916 0.730626,0 1.322917,-0.8292 1.322917,-1.85208 0,-1.02288 -0.592291,-1.85208 -1.322917,-1.85208 -0.772126,0.0462 -1.322917,1.32291 -1.322917,0.52916 v -2.91041 c 0,-0.14658 -0.1180041,-0.26459 -0.2645833,-0.26459 H 6.35 c -0.79375,0 0.5137296,-0.76959 0.5291667,-1.32291 0,-0.73063 -0.829206,-1.32292 -1.8520833,-1.32292 z"
       id="rect4808"
       inkscape:connector-curvature="0" />
  </g>
</svg>
