<?xml version="1.0" encoding="UTF-8" standalone="no"?>
<!-- Created with Inkscape (http://www.inkscape.org/) -->

<svg
   xmlns:dc="http://purl.org/dc/elements/1.1/"
   xmlns:cc="http://creativecommons.org/ns#"
   xmlns:rdf="http://www.w3.org/1999/02/22-rdf-syntax-ns#"
   xmlns:svg="http://www.w3.org/2000/svg"
   xmlns="http://www.w3.org/2000/svg"
   xmlns:sodipodi="http://sodipodi.sourceforge.net/DTD/sodipodi-0.dtd"
   xmlns:inkscape="http://www.inkscape.org/namespaces/inkscape"
   width="48"
   height="48"
   viewBox="0 0 12.7 12.7"
   version="1.1"
   id="svg5115"
   inkscape:version="0.92.2 (5c3e80d, 2017-08-06)"
   sodipodi:docname="settings.svg">
  <defs
     id="defs5109" />
  <sodipodi:namedview
     id="base"
     pagecolor="#ffffff"
     bordercolor="#666666"
     borderopacity="1.0"
     inkscape:pageopacity="0.0"
     inkscape:pageshadow="2"
     inkscape:zoom="16"
     inkscape:cx="24"
     inkscape:cy="24"
     inkscape:document-units="mm"
     inkscape:current-layer="layer1"
     showgrid="true"
     units="px"
     inkscape:window-width="958"
     inkscape:window-height="1008"
     inkscape:window-x="1273"
     inkscape:window-y="0"
     inkscape:window-maximized="0">
    <inkscape:grid
       type="xygrid"
       id="grid5660"
       empspacing="8" />
  </sodipodi:namedview>
  <metadata
     id="metadata5112">
    <rdf:RDF>
      <cc:Work
         rdf:about="">
        <dc:format>image/svg+xml</dc:format>
        <dc:type
           rdf:resource="http://purl.org/dc/dcmitype/StillImage" />
        <dc:title></dc:title>
      </cc:Work>
    </rdf:RDF>
  </metadata>
  <g
     inkscape:label="Calque 1"
     inkscape:groupmode="layer"
     id="layer1"
     transform="translate(0,-284.29998)">
    <path
       style="display:inline;opacity:1;fill:#c51162;fill-opacity:0.98305084;stroke:none;stroke-width:0.26458332;stroke-linecap:round;stroke-linejoin:round;stroke-miterlimit:4;stroke-dasharray:none;stroke-dashoffset:0;stroke-opacity:1"
       d="m 5.0374184,284.98521 a 5.8208333,5.8208333 0 0 0 -1.7647498,0.73226 1.3229166,1.3229166 0 0 1 -0.1033529,1.75183 1.3229166,1.3229166 0 0 1 -1.7549318,0.1018 5.8208333,5.8208333 0 0 0 -0.72812087,1.76682 1.3229166,1.3229166 0 0 1 1.16582027,1.31206 1.3229166,1.3229166 0 0 1 -1.16685379,1.31258 5.8208333,5.8208333 0 0 0 0.73173829,1.76424 1.3229166,1.3229166 0 0 1 0.8361246,-0.28319 1.3229166,1.3229166 0 0 1 0.9162233,0.38705 1.3229166,1.3229166 0 0 1 0.1018024,1.75545 5.8208333,5.8208333 0 0 0 1.7668173,0.72761 1.3229166,1.3229166 0 0 1 1.3120645,-1.16531 1.3229166,1.3229166 0 0 1 1.3125816,1.16634 5.8208333,5.8208333 0 0 0 1.7647499,-0.73225 1.3229166,1.3229166 0 0 1 0.1033528,-1.75184 1.3229166,1.3229166 0 0 1 0.9544638,-0.38705 1.3229166,1.3229166 0 0 1 0.800469,0.28525 5.8208333,5.8208333 0 0 0 0.72812,-1.76682 1.3229166,1.3229166 0 0 1 -1.16582,-1.31206 1.3229166,1.3229166 0 0 1 1.166854,-1.31258 5.8208333,5.8208333 0 0 0 -0.732255,-1.76475 1.3229166,1.3229166 0 0 1 -1.7518318,-0.10335 1.3229166,1.3229166 0 0 1 -0.1018024,-1.75494 5.8208333,5.8208333 0 0 0 -1.7668173,-0.72812 1.3229166,1.3229166 0 0 1 -1.3120646,1.16582 1.3229166,1.3229166 0 0 1 -1.3125815,-1.16685 z m 1.3125815,4.87102 a 0.79375,0.79375 0 0 1 0.79375,0.79375 0.79375,0.79375 0 0 1 -0.79375,0.79375 0.79375,0.79375 0 0 1 -0.79375,-0.79375 0.79375,0.79375 0 0 1 0.79375,-0.79375 z"
       id="path4506"
       inkscape:connector-curvature="0" />
  </g>
</svg>
